<?xml version="1.0" encoding="UTF-8" standalone="no"?>
<!-- Uploaded to: SVG Repo, www.svgrepo.com, Generator: SVG Repo Mixer Tools -->

<svg
   fill="#000000"
   height="800"
   width="800"
   version="1.1"
   id="Capa_1"
   viewBox="0 0 60 60"
   xml:space="preserve"
   sodipodi:docname="cube-svgrepo-com.svg"
   inkscape:export-filename="../MyGits/fc-engine/misc/freecraft-xorg-icon-128.png"
   inkscape:export-xdpi="15.36"
   inkscape:export-ydpi="15.36"
   xmlns:inkscape="http://www.inkscape.org/namespaces/inkscape"
   xmlns:sodipodi="http://sodipodi.sourceforge.net/DTD/sodipodi-0.dtd"
   xmlns="http://www.w3.org/2000/svg"
   xmlns:svg="http://www.w3.org/2000/svg"><defs
   id="defs7" /><sodipodi:namedview
   id="namedview5"
   pagecolor="#505050"
   bordercolor="#eeeeee"
   borderopacity="1"
   inkscape:showpageshadow="0"
   inkscape:pageopacity="0"
   inkscape:pagecheckerboard="0"
   inkscape:deskcolor="#505050"
   showgrid="false" />

<path
   style="fill:#502d16;fill-opacity:1;stroke-width:0.153635"
   d="M 16.976848,51.568412 4.72215,45.510561 V 30.438543 15.366525 l 12.293362,6.06626 12.293362,6.066261 v 15.072145 c 0,8.289678 -0.01736,15.068302 -0.03862,15.063607 -0.02134,-0.0047 -5.553276,-2.734567 -12.293364,-6.066386 z"
   id="path4996" /><path
   style="fill:#502d16;fill-opacity:1;stroke-width:0.153626"
   d="M 30.65775,42.570947 V 27.498994 L 42.951112,21.432759 55.244475,15.366525 V 30.438478 45.51043 L 42.951112,51.576665 30.65775,57.6429 Z"
   id="path4998" /><path
   style="fill:#008000;fill-opacity:1;stroke-width:0.153493"
   d="M 17.956668,20.063874 6.0057,13.983573 6.5340775,13.706519 C 6.824685,13.554139 11.993902,10.823518 18.021227,7.6384696 L 28.98,1.847475 29.519968,2.1040526 c 0.296983,0.1411178 5.905896,2.8778388 12.464251,6.0816026 L 53.9085,14.01068 41.984219,20.077428 c -6.558355,3.336711 -11.95855,6.066747 -12.000432,6.066747 -0.04189,0 -5.454086,-2.736136 -12.027119,-6.080301 z"
   id="path5000" /><path
   d="M 57,13.993 C 57,13.977 56.994,13.963 56.993,13.947 56.989,13.873 56.98,13.801 56.961,13.731 56.952,13.701 56.938,13.674 56.926,13.645 56.905,13.591 56.885,13.539 56.855,13.49 56.837,13.46 56.814,13.434 56.794,13.407 56.762,13.364 56.729,13.322 56.691,13.285 56.665,13.26 56.635,13.238 56.606,13.216 56.579,13.195 56.556,13.17 56.527,13.151 56.51,13.141 56.491,13.136 56.474,13.127 56.46,13.119 56.449,13.107 56.434,13.1 l -27,-13 C 29.15,-0.037 28.819,-0.032 28.539,0.114 l -25,13 C 3.528,13.12 3.521,13.129 3.51,13.135 3.499,13.141 3.486,13.144 3.474,13.151 3.44,13.172 3.414,13.2 3.383,13.225 c -0.029,0.023 -0.06,0.044 -0.087,0.07 -0.038,0.038 -0.068,0.08 -0.099,0.123 -0.02,0.028 -0.044,0.053 -0.061,0.083 -0.031,0.053 -0.052,0.11 -0.072,0.168 C 3.055,13.694 3.042,13.716 3.035,13.742 3.013,13.824 3,13.911 3,14 v 32 c 0,0.379 0.214,0.725 0.553,0.895 l 26,13 c 0.015,0.007 0.031,0.004 0.046,0.011 C 29.728,59.962 29.862,60 30,60 c 0.138,0 0.273,-0.038 0.401,-0.095 0.015,-0.007 0.032,-0.004 0.046,-0.011 l 26,-13 C 56.786,46.725 57,46.379 57,46 V 14 c 0,-10e-4 0,-0.002 0,-0.004 0,-0.001 0,-0.002 0,-0.003 z M 29.017,2.118 53.73,14.017 30,25.882 6.201,13.983 Z M 5,15.618 l 24,12 v 29.764 l -24,-12 z m 50,29.764 -24,12 V 27.618 l 24,-12 z"
   id="path2" /></svg>
